<?xml version="1.0" standalone="no"?>
<!DOCTYPE svg PUBLIC "-//W3C//DTD SVG 20010904//EN"
 "http://www.w3.org/TR/2001/REC-SVG-20010904/DTD/svg10.dtd">
<svg version="1.0" xmlns="http://www.w3.org/2000/svg"
 width="1200.000000pt" height="417.000000pt" viewBox="0 0 1200.000000 417.000000"
 preserveAspectRatio="xMidYMid meet">

<g transform="translate(0.000000,417.000000) scale(0.100000,-0.100000)"
fill="#000000" stroke="none">
<path d="M456 2359 c-14 -11 -31 -30 -38 -42 -6 -12 -66 -228 -133 -479 l-122
-458 442 0 443 0 21 88 c12 48 24 95 27 105 5 16 -12 17 -271 17 -218 0 -276
3 -273 13 3 6 15 51 28 99 l23 88 235 2 235 3 18 80 c11 44 21 90 24 103 l5
22 -229 0 -229 0 23 83 22 82 260 3 261 2 21 88 c12 48 24 95 27 105 5 16 -18
17 -394 17 -389 0 -400 -1 -426 -21z"/>
<path d="M1391 2343 c-13 -48 -231 -954 -231 -959 0 -2 66 -4 148 -4 l147 0
118 488 c64 268 117 493 117 500 0 9 -36 12 -145 12 l-144 0 -10 -37z"/>
<path d="M1707 1892 c-64 -268 -117 -493 -117 -501 0 -11 43 -12 238 -8 269 5
333 16 478 88 266 131 365 400 202 556 -66 64 -115 77 -290 81 -87 2 -158 6
-158 8 0 3 14 62 30 131 17 69 30 127 30 129 0 2 -66 4 -148 4 l-147 0 -118
-488z m495 16 c123 -69 76 -231 -88 -304 -55 -24 -171 -50 -181 -41 -3 4 14
87 37 187 l44 180 74 0 c58 0 83 -5 114 -22z"/>
<path d="M2791 2343 c-13 -50 -30 -126 -31 -136 0 -4 66 -6 147 -5 l147 3 22
88 22 87 -149 0 -148 0 -10 -37z"/>
<path d="M3386 2334 c-81 -24 -151 -46 -155 -49 -3 -4 -15 -43 -26 -88 l-21
-82 -36 -3 c-35 -3 -36 -4 -52 -70 -9 -37 -19 -75 -22 -84 -4 -15 1 -18 30
-18 20 0 36 -2 36 -5 0 -3 -20 -89 -45 -192 -50 -206 -52 -230 -29 -279 29
-60 77 -77 234 -82 l136 -4 56 88 57 89 -73 5 c-82 6 -106 19 -106 60 0 25 32
175 61 283 l10 37 83 0 84 0 16 68 c9 37 19 75 22 85 5 15 -3 17 -75 17 -44 0
-82 3 -84 8 -2 4 9 61 25 127 15 65 27 122 26 126 -2 4 -70 -13 -152 -37z"/>
<path d="M4390 2362 c-148 -39 -250 -140 -250 -249 0 -62 36 -117 173 -263 73
-78 142 -154 154 -171 25 -35 20 -67 -14 -80 -13 -5 -112 -9 -219 -9 -130 0
-194 -4 -194 -11 0 -5 5 -53 12 -105 l11 -94 241 0 c260 0 325 9 414 54 126
65 184 194 132 295 -10 21 -89 112 -175 202 -104 110 -155 171 -155 186 0 44
32 53 197 53 l152 0 31 97 c16 54 30 101 30 105 0 4 -107 8 -237 7 -190 0
-251 -4 -303 -17z"/>
<path d="M6800 2297 l-145 -32 -19 -72 c-18 -71 -19 -72 -54 -75 l-36 -3 -22
-87 -22 -88 34 0 c19 0 34 -3 34 -7 0 -5 -21 -95 -46 -202 -50 -211 -51 -240
-8 -291 38 -45 107 -61 244 -58 l113 3 54 85 54 85 -75 5 c-79 6 -106 20 -106
54 0 11 16 89 36 173 l37 152 85 3 85 3 18 75 c10 41 18 81 19 88 0 8 -22 12
-80 12 -57 0 -80 4 -80 13 0 6 11 54 24 105 16 61 20 92 12 91 -6 0 -76 -15
-156 -32z"/>
<path d="M7386 2114 c-193 -42 -303 -163 -314 -345 -5 -93 12 -154 68 -232 47
-66 112 -111 198 -137 51 -16 92 -20 206 -20 l141 1 52 87 51 87 -136 6 c-130
6 -172 13 -172 28 0 3 37 16 81 29 227 63 340 172 342 331 1 88 -50 141 -162
167 -74 18 -268 16 -355 -2z m232 -203 c6 -61 -96 -133 -221 -156 l-37 -7 0
37 c0 83 63 150 157 164 72 11 97 1 101 -38z"/>
<path d="M4924 2103 c20 -69 166 -633 166 -643 0 -16 -178 -267 -218 -307
l-33 -33 143 0 c131 0 146 2 180 23 36 21 148 177 611 850 l88 127 -164 0
-164 0 -108 -185 c-59 -102 -111 -183 -114 -179 -3 3 -20 85 -36 182 l-31 177
-163 3 c-152 2 -162 1 -157 -15z"/>
<path d="M6079 2110 c-147 -17 -249 -98 -249 -195 0 -47 7 -59 106 -191 83
-109 99 -146 68 -158 -9 -3 -73 -6 -143 -6 l-127 0 12 -77 c7 -43 13 -84 13
-91 1 -11 42 -13 209 -10 203 3 208 4 264 31 102 50 153 136 129 217 -6 22
-49 87 -97 147 -46 59 -83 114 -82 122 6 28 50 41 139 41 l87 0 21 85 c11 46
21 87 21 90 0 8 -294 4 -371 -5z"/>
<path d="M9607 2109 c-166 -19 -273 -126 -238 -237 6 -21 49 -86 96 -146 84
-107 102 -147 69 -160 -9 -3 -72 -6 -140 -6 -143 0 -132 10 -113 -111 l12 -69
187 0 c211 0 262 10 332 63 50 38 88 99 88 142 0 48 -31 103 -114 204 -42 52
-76 101 -74 110 6 28 50 41 140 41 74 0 87 3 92 18 6 20 36 151 36 158 0 7
-300 2 -373 -7z"/>
<path d="M2652 1763 c-46 -192 -86 -356 -88 -365 -5 -17 7 -18 144 -18 l150 0
12 53 c7 28 46 191 86 360 41 170 74 310 74 313 0 2 -66 4 -148 4 l-147 0 -83
-347z"/>
<path d="M7951 1758 c-46 -194 -86 -359 -89 -365 -3 -10 29 -13 142 -13 l145
0 10 38 c14 52 121 502 121 507 0 3 47 5 105 5 84 0 105 -3 105 -14 0 -8 -27
-125 -60 -261 -33 -136 -60 -253 -60 -261 0 -11 27 -14 143 -14 l142 0 65 273
65 272 64 3 c77 4 119 -11 127 -45 5 -19 -54 -293 -104 -485 -4 -17 8 -18 141
-18 l145 0 58 238 c87 354 83 416 -24 465 -46 22 -56 22 -602 25 l-555 3 -84
-353z"/>
<path d="M6580 925 c-111 -19 -195 -43 -290 -82 -113 -46 -159 -73 -392 -225
-222 -145 -326 -199 -442 -228 -78 -20 -120 -20 -2270 -26 l-2191 -7 -315
-145 c-173 -79 -317 -147 -320 -150 -3 -2 1129 -1 2515 2 2739 8 2586 5 2748
63 118 42 222 99 427 233 251 164 351 215 520 262 35 10 592 14 2569 18 l2524
5 -169 147 -169 148 -2335 -1 c-1853 -1 -2350 -4 -2410 -14z"/>
</g>
</svg>
